<svg xmlns="http://www.w3.org/2000/svg" width="169" height="57" fill="none"><path fill="#F85552" d="M9.071 8.286h2.143v2.143H9.071V8.286Zm2.143 0h2.143v2.143h-2.143V8.286Zm2.143 0H15.5v2.143h-2.143V8.286Zm2.143 0h2.143v2.143H15.5V8.286Zm2.143 0h2.143v2.143h-2.143V8.286ZM6.929 10.429H9.07v2.142H6.93V10.43Zm0 2.142H9.07v2.143H6.93v-2.143Zm2.142 0h2.143v2.143H9.071v-2.143Zm0 2.143h2.143v2.143H9.071v-2.143Zm2.143 0h2.143v2.143h-2.143v-2.143Zm2.143 0H15.5v2.143h-2.143v-2.143Zm0 2.143H15.5V19h-2.143v-2.143Zm-2.143 0h2.143V19h-2.143v-2.143Zm-6.428-2.143h2.143v2.143H4.786v-2.143Zm0 2.143h2.143V19H4.786v-2.143Zm2.143 0H9.07V19H6.93v-2.143Zm0 2.143H9.07v2.143H6.93V19Zm2.142 0h2.143v2.143H9.071V19Zm0 2.143h2.143v2.143H9.071v-2.143Zm2.143 0h2.143v2.143h-2.143v-2.143Zm8.572-12.857h2.143v2.143h-2.143V8.286Zm-2.143 2.143h2.143v2.142h-2.143V10.43Zm2.143 0h2.143v2.142h-2.143V10.43Zm2.143 0h2.142v2.142H21.93V10.43Zm2.142 0h2.143v2.142h-2.143V10.43ZM21.93 12.57h2.142v2.143H21.93v-2.143Zm4.285-4.285h2.143v2.143h-2.143V8.286ZM15.5 16.857h2.143V19H15.5v-2.143Zm2.143 0h2.143V19h-2.143v-2.143Zm2.143 0h2.143V19h-2.143v-2.143Zm-15 12.857h2.143v2.143H4.786v-2.143Zm2.143 0H9.07v2.143H6.93v-2.143Zm2.142 0h2.143v2.143H9.071v-2.143Zm2.143 0h2.143v2.143h-2.143v-2.143Zm2.143 0H15.5v2.143h-2.143v-2.143Zm2.143 0h2.143v2.143H15.5v-2.143Zm2.143 0h2.143v2.143h-2.143v-2.143Zm2.143 0h2.143v2.143h-2.143v-2.143Zm2.143 0h2.142v2.143H21.93v-2.143Zm-10.715 2.143h2.143V34h-2.143v-2.143Zm2.143 0H15.5V34h-2.143v-2.143Zm2.143 0h2.143V34H15.5v-2.143Zm-6.429-4.286h2.143v2.143H9.071v-2.143Zm2.143 0h2.143v2.143h-2.143v-2.143Zm2.143 0H15.5v2.143h-2.143v-2.143Zm10.714 2.143h2.143v2.143h-2.143v-2.143Zm0-2.143h2.143v2.143h-2.143v-2.143ZM21.93 25.43h2.142v2.142H21.93V25.43Zm4.285 0h2.143v2.142h-2.143V25.43Zm-6.428 0h2.143v2.142h-2.143V25.43Zm-2.143 0h2.143v2.142h-2.143V25.43Zm2.143-2.143h2.143v2.143h-2.143v-2.143Zm-2.143 0h2.143v2.143h-2.143v-2.143Zm-2.143 0h2.143v2.143H15.5v-2.143Zm-2.143 0H15.5v2.143h-2.143v-2.143Zm0-2.143H15.5v2.143h-2.143v-2.143Zm12.857 2.143h2.143v2.143h-2.143v-2.143Zm0-2.143h2.143v2.143h-2.143v-2.143Zm-2.143 0h2.143v2.143h-2.143v-2.143Zm0 2.143h2.143v2.143h-2.143v-2.143Zm-2.142-2.143h2.142v2.143H21.93v-2.143ZM19.786 19h2.143v2.143h-2.143V19Zm-2.143 0h2.143v2.143h-2.143V19ZM15.5 19h2.143v2.143H15.5V19Zm6.429 0h2.142v2.143H21.93V19Zm2.142 0h2.143v2.143h-2.143V19ZM2.643 31.857h2.143V34H2.643v-2.143Zm30.004-2.143h2.143v2.143h-2.143v-2.143Zm-2.143 0h2.143v2.143h-2.143v-2.143Zm4.286 0h2.143v2.143H34.79v-2.143Zm-2.143 2.143h2.143V34h-2.143v-2.143Zm2.143 0h2.143V34H34.79v-2.143Zm-2.143-4.286h2.143v2.143h-2.143v-2.143Zm2.143 0h2.143v2.143H34.79v-2.143Zm0-2.142h2.143v2.142H34.79V25.43Zm0-2.143h2.143v2.143H34.79v-2.143Zm-2.143 0h2.143v2.143h-2.143v-2.143Zm0 2.143h2.143v2.142h-2.143V25.43Zm2.143-4.286h2.143v2.143H34.79v-2.143ZM41.218 19h2.143v2.143H41.22V19Zm-2.142 0h2.142v2.143h-2.142V19Zm-2.143 10.714h2.143v2.143h-2.143v-2.143Zm0-12.857h2.143V19h-2.143v-2.143Zm2.143 0h2.142V19h-2.142v-2.143Zm2.142 0h2.143V19H41.22v-2.143ZM34.79 19h2.143v2.143H34.79V19Zm-2.143 2.143h2.143v2.143h-2.143v-2.143Zm6.429 8.571h2.142v2.143h-2.142v-2.143Zm6.413 0h2.143v2.143H45.49v-2.143Zm2.143 0h2.143v2.143h-2.143v-2.143Zm2.143 0h2.143v2.143h-2.143v-2.143Zm2.143 0h2.143v2.143h-2.143v-2.143Zm-2.143 2.143h2.143V34h-2.143v-2.143Zm6.429-2.143h2.143v2.143h-2.143v-2.143Zm2.143-2.143h2.142v2.143h-2.142v-2.143Zm-2.143 0h2.143v2.143h-2.143v-2.143Zm0-2.142h2.143v2.142h-2.143V25.43Zm0-2.143h2.143v2.143h-2.143v-2.143Zm2.143 0h2.142v2.143h-2.142v-2.143Zm0 2.143h2.142v2.142h-2.142V25.43ZM47.632 27.57h2.143v2.143h-2.143v-2.143Zm2.143 0h2.143v2.143h-2.143v-2.143Zm0-2.142h2.143v2.142h-2.143V25.43Zm-2.143 0h2.143v2.142h-2.143V25.43Zm0-2.143h2.143v2.143h-2.143v-2.143Zm10.715-2.143h2.142v2.143h-2.142v-2.143Zm-2.143 0h2.143v2.143h-2.143v-2.143Zm-6.429 0h2.143v2.143h-2.143v-2.143Zm-2.143 0h2.143v2.143h-2.143v-2.143ZM60.49 19h2.142v2.143H60.49V19Zm-2.143 0h2.142v2.143h-2.142V19Zm-2.143 0h2.143v2.143h-2.143V19Zm-2.143 0h2.143v2.143H54.06V19Zm-2.143-2.143h2.143V19h-2.143v-2.143Zm2.143 0h2.143V19H54.06v-2.143Zm2.143 0h2.143V19h-2.143v-2.143Zm-6.429 6.429h2.143v2.143h-2.143v-2.143Zm0-4.286h2.143v2.143h-2.143V19Zm2.143 12.857h2.143V34h-2.143v-2.143Zm2.143-2.143h2.143v2.143H54.06v-2.143ZM64.781 19h2.143v2.143h-2.143V19Zm2.143 0h2.143v2.143h-2.143V19Zm2.143 0h2.143v2.143h-2.143V19Zm2.143 0h2.143v2.143H71.21V19Zm-4.286-2.143h2.143V19h-2.143v-2.143Zm2.143 0h2.143V19h-2.143v-2.143ZM75.496 19h2.143v2.143h-2.143V19Zm2.143 0h2.142v2.143H77.64V19Zm2.142 0h2.143v2.143h-2.143V19Zm2.143 0h2.143v2.143h-2.143V19Zm-4.285-2.143h2.142V19H77.64v-2.143Zm2.142 0h2.143V19h-2.143v-2.143Zm-8.57 4.286h2.142v2.143H71.21v-2.143Zm-2.144 0h2.143v2.143h-2.143v-2.143Zm0 2.143h2.143v2.143h-2.143v-2.143Zm0 2.143h2.143v2.142h-2.143V25.43Zm2.143 0h2.143v2.142H71.21V25.43Zm0 2.142h2.143v2.143H71.21v-2.143Zm0-4.285h2.143v2.143H71.21v-2.143Zm-2.143 4.285h2.143v2.143h-2.143v-2.143Zm8.572-6.428h2.142v2.143H77.64v-2.143Zm2.142 0h2.143v2.143h-2.143v-2.143Zm0 2.143h2.143v2.143h-2.143v-2.143Zm0 2.143h2.143v2.142h-2.143V25.43Zm0 2.142h2.143v2.143h-2.143v-2.143ZM77.64 25.43h2.142v2.142H77.64V25.43Zm0-2.143h2.142v2.143H77.64v-2.143Zm0 4.285h2.142v2.143H77.64v-2.143Zm-10.715 2.143h2.143v2.143h-2.143v-2.143Zm2.143 0h2.143v2.143h-2.143v-2.143Zm2.143 0h2.143v2.143H71.21v-2.143Zm2.143 0h2.143v2.143h-2.143v-2.143Zm2.143 0h2.143v2.143h-2.143v-2.143Zm2.143 0h2.142v2.143H77.64v-2.143Zm2.142 0h2.143v2.143h-2.143v-2.143Zm2.143 0h2.143v2.143h-2.143v-2.143ZM71.21 31.857h2.143V34H71.21v-2.143Zm2.143 0h2.143V34h-2.143v-2.143Zm10.714-2.143h2.143v2.143h-2.143v-2.143Zm-2.143 2.143h2.143V34h-2.143v-2.143Zm-2.143 0h2.143V34h-2.143v-2.143Zm10.698-2.143h2.143v2.143h-2.143v-2.143Zm2.143 0h2.143v2.143h-2.143v-2.143Zm2.143 0h2.143v2.143h-2.143v-2.143Zm2.143 0h2.142v2.143h-2.142v-2.143Zm-4.286 2.143h2.143V34h-2.143v-2.143Zm2.143 0h2.143V34h-2.143v-2.143Zm6.428-2.143h2.143v2.143h-2.143v-2.143Zm2.143 0h2.143v2.143h-2.143v-2.143Zm2.143 0h2.143v2.143h-2.143v-2.143Zm-2.143 2.143h2.143V34h-2.143v-2.143Zm0-4.286h2.143v2.143h-2.143v-2.143Zm-2.143 0h2.143v2.143h-2.143v-2.143Zm0-2.142h2.143v2.142h-2.143V25.43Zm0-2.143h2.143v2.143h-2.143v-2.143Zm2.143 0h2.143v2.143h-2.143v-2.143Zm0 2.143h2.143v2.142h-2.143V25.43ZM92.622 27.57h2.143v2.143h-2.143v-2.143Zm2.143 0h2.143v2.143h-2.143v-2.143Zm0-2.142h2.143v2.142h-2.143V25.43Zm-2.143 0h2.143v2.142h-2.143V25.43Zm0-2.143h2.143v2.143h-2.143v-2.143Zm2.143 0h2.143v2.143h-2.143v-2.143Zm8.571-2.143h2.143v2.143h-2.143v-2.143Zm-2.143 0h2.143v2.143h-2.143v-2.143Zm-6.428 0h2.143v2.143h-2.143v-2.143ZM92.622 19h2.143v2.143h-2.143V19Zm0 2.143h2.143v2.143h-2.143v-2.143ZM105.479 19h2.143v2.143h-2.143V19Zm-2.143 0h2.143v2.143h-2.143V19Zm-2.143 0h2.143v2.143h-2.143V19Zm-6.428 0h2.143v2.143h-2.143V19Zm2.143 0h2.142v2.143h-2.142V19Zm2.142 0h2.143v2.143h-2.142V19Zm-8.57 0h2.142v2.143h-2.143V19Zm-2.144 0h2.143v2.143h-2.143V19Zm2.143-2.143h2.143V19h-2.143v-2.143Zm2.143 0h2.143V19h-2.143v-2.143Zm6.428 0h2.143V19h-2.142v-2.143Zm2.143 0h2.143V19h-2.143v-2.143Zm8.589 12.857h2.142v2.143h-2.142v-2.143Zm2.142 0h2.143v2.143h-2.143v-2.143Zm2.143 0h2.143v2.143h-2.143v-2.143Zm2.143 0h2.143v2.143h-2.143v-2.143Zm2.143 0h2.143v2.143h-2.143v-2.143Zm-4.286 2.143h2.143V34h-2.143v-2.143Zm2.143 0h2.143V34h-2.143v-2.143Zm4.286-2.143h2.143v2.143h-2.143v-2.143Zm-8.572-2.143h2.143v2.143h-2.143v-2.143Zm0-2.142h2.143v2.142h-2.143V25.43Zm2.143 0h2.143v2.142h-2.143V25.43Zm0 2.142h2.143v2.143h-2.143v-2.143Zm0-10.714h2.143V19h-2.143v-2.143Zm0 4.286h2.143v2.143h-2.143v-2.143Zm0 2.143h2.143v2.143h-2.143v-2.143Zm-2.143 0h2.143v2.143h-2.143v-2.143Zm0-2.143h2.143v2.143h-2.143v-2.143Zm4.286-6.429h2.143v2.143h-2.143v-2.143Zm2.143 0h2.143v2.143h-2.143v-2.143Zm2.143 0h2.143v2.143h-2.143v-2.143Zm-2.143 2.143h2.143V19h-2.143v-2.143Zm2.143 0h2.143V19h-2.143v-2.143Zm2.143 0h2.143V19h-2.143v-2.143Zm-2.143 4.286h2.143v2.143h-2.143v-2.143Zm2.143 0h2.143v2.143h-2.143v-2.143Zm0 2.143h2.143v2.143h-2.143v-2.143Zm0 2.143h2.143v2.142h-2.143V25.43Zm-2.143 0h2.143v2.142h-2.143V25.43Zm0-2.143h2.143v2.143h-2.143v-2.143Zm0 4.285h2.143v2.143h-2.143v-2.143Zm2.143 0h2.143v2.143h-2.143v-2.143Zm-4.286-15h2.143v2.143h-2.143v-2.143Zm-2.143 0h2.143v2.143h-2.143v-2.143Zm-2.143 0h2.143v2.143h-2.143v-2.143Zm2.143-2.142h2.143v2.142h-2.143V10.43Zm-2.143 0h2.143v2.142h-2.143V10.43Zm-2.143-2.143h2.143v2.143h-2.143V8.286Zm0 2.143h2.143v2.142h-2.143V10.43Zm0 8.571h2.143v2.143h-2.143V19Zm2.143 0h2.143v2.143h-2.143V19Zm6.429 0h2.143v2.143h-2.143V19Zm2.143 0h2.143v2.143h-2.143V19Zm6.424 10.714h2.143v2.143h-2.143v-2.143Zm2.143 0h2.143v2.143h-2.143v-2.143Zm2.143 0h2.143v2.143h-2.143v-2.143Zm2.143 0h2.142v2.143h-2.142v-2.143Zm-4.286 2.143h2.143V34h-2.143v-2.143Zm2.143 0h2.143V34h-2.143v-2.143Zm-2.143-4.286h2.143v2.143h-2.143v-2.143Zm2.143 0h2.143v2.143h-2.143v-2.143Zm0-2.142h2.143v2.142h-2.143V25.43Zm0-2.143h2.143v2.143h-2.143v-2.143Zm0-2.143h2.143v2.143h-2.143v-2.143Zm-2.143 0h2.143v2.143h-2.143v-2.143Zm0 2.143h2.143v2.143h-2.143v-2.143Zm0 2.143h2.143v2.142h-2.143V25.43ZM133.349 19h2.143v2.143h-2.143V19Zm-2.143 0h2.143v2.143h-2.143V19Zm-2.143 0h2.143v2.143h-2.143V19Zm-2.143 0h2.143v2.143h-2.143V19Zm2.143-2.143h2.143V19h-2.143v-2.143Zm2.143 0h2.143V19h-2.143v-2.143Zm4.286 0h2.142V19h-2.142v-2.143Zm2.142 0h2.143V19h-2.143v-2.143Zm2.143 0h2.143V19h-2.143v-2.143ZM137.634 19h2.143v2.143h-2.143V19Zm2.143 0h2.143v2.143h-2.143V19Zm4.271 10.714h2.143v2.143h-2.143v-2.143Zm-2.142 0h2.142v2.143h-2.142v-2.143Zm4.285 0h2.143v2.143h-2.143v-2.143Zm-2.143 2.143h2.143V34h-2.143v-2.143Zm2.143 0h2.143V34h-2.143v-2.143Zm-2.143-6.428h2.143v2.142h-2.143V25.43Zm2.143 0h2.143v2.142h-2.143V25.43Zm0-2.143h2.143v2.143h-2.143v-2.143Zm0-2.143h2.143v2.143h-2.143v-2.143Zm-2.143 0h2.143v2.143h-2.143v-2.143Zm0 2.143h2.143v2.143h-2.143v-2.143ZM146.191 19h2.143v2.143h-2.143V19Zm2.143-2.143h2.143V19h-2.143v-2.143Zm4.286 0h2.143V19h-2.143v-2.143Zm-2.143 0h2.143V19h-2.143v-2.143ZM152.62 19h2.143v2.143h-2.143V19Zm-4.286 10.714h2.143v2.143h-2.143v-2.143ZM150.477 19h2.143v2.143h-2.143V19Zm4.286 0h2.143v2.143h-2.143V19Zm0 2.143h2.143v2.143h-2.143v-2.143Zm-2.143 0h2.143v2.143h-2.143v-2.143Zm-2.143 2.143h2.143v2.143h-2.143v-2.143Zm-2.143 0h2.143v2.143h-2.143v-2.143Zm-4.286 4.285h2.143v2.143h-2.143v-2.143Zm2.143 0h2.143v2.143h-2.143v-2.143Zm4.286 2.143h2.143v2.143h-2.143v-2.143Zm10.71 2.143h2.143V34h-2.143v-2.143Zm2.143 0h2.143V34h-2.143v-2.143Zm-4.286-2.143h2.143v2.143h-2.143v-2.143Zm2.143 0h2.143v2.143h-2.143v-2.143Zm2.143 0h2.143v2.143h-2.143v-2.143Zm2.143 0h2.143v2.143h-2.143v-2.143Zm-4.286-2.143h2.143v2.143h-2.143v-2.143Zm2.143 0h2.143v2.143h-2.143v-2.143Zm0-2.142h2.143v2.142h-2.143V25.43Zm0-2.143h2.143v2.143h-2.143v-2.143Zm-2.143 0h2.143v2.143h-2.143v-2.143Zm0-2.143h2.143v2.143h-2.143v-2.143Zm0-2.143h2.143v2.143h-2.143V19Zm0 6.429h2.143v2.142h-2.143V25.43Zm2.143-4.286h2.143v2.143h-2.143v-2.143Zm0-2.143h2.143v2.143h-2.143V19Zm0-2.143h2.143V19h-2.143v-2.143Zm0-6.428h2.143v2.142h-2.143V10.43Zm0 2.142h2.143v2.143h-2.143v-2.143Zm0 2.143h2.143v2.143h-2.143v-2.143Zm-2.143 2.143h2.143V19h-2.143v-2.143Zm0-2.143h2.143v2.143h-2.143v-2.143Zm0-2.143h2.143v2.143h-2.143v-2.143Zm0-2.142h2.143v2.142h-2.143V10.43Zm2.143-2.143h2.143v2.143h-2.143V8.286Z"/></svg>